<svg width="30" height="30" viewBox="0 0 30 30" fill="none" xmlns="http://www.w3.org/2000/svg">
<path fill-rule="evenodd" clip-rule="evenodd" d="M15 0C6.71875 0 0 6.71875 0 15C0 23.2812 6.71875 30 15 30C23.265 30 30 23.2812 30 15C30 6.71875 23.265 0 15 0ZM24.9075 6.91375C26.6975 9.09375 27.7712 11.8763 27.8037 14.8863C27.3813 14.805 23.1512 13.9425 18.8875 14.4788C18.79 14.2675 18.7087 14.04 18.6112 13.8125C18.3512 13.1938 18.0575 12.56 17.765 11.9575C22.4837 10.0375 24.6313 7.2725 24.9075 6.91375ZM16.7725 10.0538C14.6737 6.19875 12.3475 3.04125 11.99 2.55375C12.95 2.32625 13.9587 2.2125 15 2.2125C18.2537 2.2125 21.2313 3.4325 23.4925 5.43375C23.265 5.75875 21.3288 8.34625 16.7725 10.0538ZM9.55 3.41625C9.89125 3.87125 12.1687 7.04375 14.3 10.8187C8.3125 12.4125 3.025 12.3812 2.45625 12.3812C3.28625 8.41125 5.97125 5.10875 9.55 3.41625ZM2.18 14.625C2.7325 14.6412 8.9475 14.7225 15.3412 12.8038C15.7162 13.5188 16.0575 14.2513 16.3825 14.9838C16.22 15.0325 16.0413 15.0813 15.8775 15.13C9.2725 17.2612 5.75875 23.0862 5.465 23.5737C3.43125 21.3125 2.17875 18.3025 2.17875 15.0162L2.18 14.625ZM17.1963 17.115C17.2288 17.0988 17.245 17.0988 17.2775 17.0825C19.0837 21.7513 19.8163 25.6725 20.0113 26.795C18.465 27.4625 16.7738 27.82 15 27.82C12.0387 27.82 9.30625 26.8113 7.1425 25.12C7.37 24.6475 9.9725 19.6362 17.1963 17.115ZM22.1425 25.6238C22.0125 24.8425 21.3287 21.1012 19.6537 16.4963C23.6725 15.8625 27.1863 16.9038 27.625 17.05C27.0713 20.6125 25.0225 23.6875 22.1425 25.6238Z" fill="black"/>
</svg>
