<svg width="25" height="22" viewBox="0 0 25 22" fill="none" xmlns="http://www.w3.org/2000/svg">
<path d="M25 1.56286C25 2.42764 24.3021 3.12571 23.4375 3.12571H1.5625C0.697917 3.12571 0 2.42764 0 1.56286C0 0.698076 0.697917 0 1.5625 0H23.4375C24.3021 0 25 0.698076 25 1.56286ZM6.77083 18.7543H1.5625C0.697917 18.7543 0 19.4524 0 20.3171C0 21.1819 0.697917 21.88 1.5625 21.88H6.77083C7.63542 21.88 8.33333 21.1819 8.33333 20.3171C8.33333 19.4524 7.63542 18.7543 6.77083 18.7543ZM15.1042 9.37714H1.5625C0.697917 9.37714 0 10.0752 0 10.94C0 11.8048 0.697917 12.5029 1.5625 12.5029H15.1042C15.9688 12.5029 16.6667 11.8048 16.6667 10.94C16.6667 10.0752 15.9688 9.37714 15.1042 9.37714Z" fill="white"/>
</svg>
