<svg width="40" height="21" viewBox="0 0 40 21" fill="none" xmlns="http://www.w3.org/2000/svg">
<path d="M39.1693 0.847646C38.9037 0.579056 38.5877 0.365869 38.2396 0.220385C37.8914 0.0749016 37.518 0 37.1409 0C36.7638 0 36.3904 0.0749016 36.0422 0.220385C35.6941 0.365869 35.3782 0.579056 35.1126 0.847646L22.0283 13.9722C21.7628 14.2408 21.4468 14.454 21.0987 14.5994C20.7505 14.7449 20.3771 14.8198 20 14.8198C19.6229 14.8198 19.2495 14.7449 18.9013 14.5994C18.5532 14.454 18.2372 14.2408 17.9717 13.9722L4.88742 0.847646C4.62185 0.579056 4.30588 0.365869 3.95775 0.220385C3.60962 0.0749016 3.23622 0 2.85908 0C2.48195 0 2.10855 0.0749016 1.76042 0.220385C1.41229 0.365869 1.09632 0.579056 0.830741 0.847646C0.298656 1.38456 0 2.11085 0 2.86791C0 3.62496 0.298656 4.35126 0.830741 4.88817L13.9435 18.0414C15.5505 19.6513 17.7288 20.5556 20 20.5556C22.2712 20.5556 24.4495 19.6513 26.0565 18.0414L39.1693 4.88817C39.7013 4.35126 40 3.62496 40 2.86791C40 2.11085 39.7013 1.38456 39.1693 0.847646Z" fill="white"/>
</svg>
